# xmcd CD database file
#
# Track frame offsets:
#	150
#	19166
#	31845
#	48057
#	66046
#	78284
#	97630
#	110768
#	130798
#	145591
#
# Disc length: 2211 seconds
#
# Revision: 0
# Processed by: cddbd v1.4PL0 Copyright (c) Steve Scherf et al.
# Submitted via: CDex 1.40Release
#
DISCID=6f08a10a
DTITLE=Sugarland - Premium Quality Tunes
DYEAR=2003
DGENRE=Country
TTITLE0=Baby Girl
TTITLE1=Tennessee
TTITLE2=Fly Away
TTITLE3=My Hearts Broken Too
TTITLE4=Mississippi
TTITLE5=I Won't Cry
TTITLE6=50 Cent Lovin
TTITLE7=The Ride
TTITLE8=Honky Tonk Heaven
TTITLE9=Sugarland
EXTD=YEAR: 2003 ID3G: 2
EXTT0=
EXTT1=
EXTT2=
EXTT3=
EXTT4=
EXTT5=
EXTT6=
EXTT7=
EXTT8=
EXTT9=
PLAYORDER=
